<svg width="25" height="27" viewBox="0 0 25 27" fill="none" xmlns="http://www.w3.org/2000/svg">
<path fill-rule="evenodd" clip-rule="evenodd" d="M0.254403 21.725C0.442103 22.8938 0.62068 24.0545 0.841543 25.219C1.02923 26.2052 1.98365 26.8525 2.9698 26.6649C3.95594 26.4772 4.60291 25.5245 4.41522 24.5383C4.20041 23.4075 4.02787 22.2804 3.84447 21.1448C3.68467 20.1529 2.75052 19.479 1.75867 19.6388C0.768579 19.799 0.0946095 20.7331 0.254403 21.725Z" fill="#E21A43"/>
<path fill-rule="evenodd" clip-rule="evenodd" d="M8.24707 16.4364C11.1013 18.813 14.0736 21.0444 16.9766 23.3588C17.7615 23.9852 18.9073 23.8553 19.5338 23.0704C20.1585 22.2849 20.0299 21.1415 19.245 20.515C16.3625 18.2155 13.4097 16.0027 10.5759 13.6409C9.80449 12.9993 8.65607 13.1038 8.01439 13.8753C7.37095 14.6463 7.47563 15.7947 8.24707 16.4364Z" fill="#E21A43"/>
<path fill-rule="evenodd" clip-rule="evenodd" d="M13.2737 4.09951C16.3837 4.41875 19.5091 4.65182 22.6149 5.00761C23.611 5.1201 24.513 4.40332 24.6277 3.40594C24.7406 2.40809 24.0239 1.50615 23.0265 1.39142C19.907 1.03761 16.7692 0.801251 13.6448 0.480002C12.6459 0.378047 11.7526 1.10466 11.6506 2.10358C11.5469 3.10203 12.2748 3.99755 13.2737 4.09951Z" fill="#E21A43"/>
</svg>
